<svg width="58" height="43" fill="none" xmlns="http://www.w3.org/2000/svg"><path d="M49.1 3.564A48.815 48.815 0 0 0 37.293.003a.181.181 0 0 0-.19.087 32.03 32.03 0 0 0-1.47 2.937 45.383 45.383 0 0 0-13.26 0A29.412 29.412 0 0 0 20.881.09a.188.188 0 0 0-.19-.087A48.678 48.678 0 0 0 8.887 3.564a.168.168 0 0 0-.078.065C1.29 14.556-.77 25.214.24 35.74a.189.189 0 0 0 .075.132c4.961 3.544 9.767 5.695 14.483 7.121a.19.19 0 0 0 .203-.065 33.27 33.27 0 0 0 2.963-4.687.177.177 0 0 0-.1-.249 32.067 32.067 0 0 1-4.525-2.097.178.178 0 0 1-.018-.3c.304-.222.608-.453.899-.685a.183.183 0 0 1 .187-.025c9.492 4.215 19.768 4.215 29.149 0a.183.183 0 0 1 .19.023c.29.232.594.465.9.687a.178.178 0 0 1-.016.3 30.09 30.09 0 0 1-4.527 2.095.178.178 0 0 0-.098.25 37.368 37.368 0 0 0 2.96 4.686c.046.063.129.09.204.067 4.74-1.426 9.545-3.577 14.506-7.12a.18.18 0 0 0 .075-.13c1.21-12.17-2.025-22.74-8.575-32.11a.146.146 0 0 0-.076-.068ZM19.381 29.33c-2.858 0-5.213-2.552-5.213-5.686s2.31-5.686 5.213-5.686c2.926 0 5.258 2.575 5.212 5.686 0 3.134-2.309 5.686-5.212 5.686Zm19.272 0c-2.858 0-5.212-2.552-5.212-5.686s2.309-5.686 5.212-5.686c2.926 0 5.258 2.575 5.212 5.686 0 3.134-2.286 5.686-5.212 5.686Z" fill="#fff"/></svg>